<svg width="164" height="20" viewBox="0 0 164 20" fill="none" xmlns="http://www.w3.org/2000/svg">
<path d="M4.25206 10.156H14.4161V11.944H4.25206V10.156ZM7.49206 16.336C7.49206 16.536 7.54406 16.7 7.64806 16.828C7.75206 16.948 7.90406 17.048 8.10406 17.128L8.56006 17.296C8.97606 17.456 9.18406 17.752 9.18406 18.184C9.18406 18.432 9.10006 18.632 8.93206 18.784C8.76406 18.928 8.50406 19 8.15206 19H1.26406C0.912063 19 0.652063 18.928 0.484063 18.784C0.316063 18.632 0.232063 18.432 0.232063 18.184C0.232063 17.752 0.440063 17.456 0.856063 17.296L1.31206 17.128C1.52006 17.048 1.67206 16.948 1.76806 16.828C1.87206 16.7 1.92406 16.536 1.92406 16.336V4.864C1.92406 4.664 1.87206 4.504 1.76806 4.384C1.67206 4.256 1.52006 4.152 1.31206 4.072L0.856063 3.904C0.440063 3.744 0.232063 3.448 0.232063 3.016C0.232063 2.76 0.316063 2.56 0.484063 2.416C0.652063 2.272 0.912063 2.2 1.26406 2.2H8.15206C8.50406 2.2 8.76406 2.272 8.93206 2.416C9.10006 2.56 9.18406 2.76 9.18406 3.016C9.18406 3.448 8.97606 3.744 8.56006 3.904L8.10406 4.072C7.90406 4.152 7.75206 4.256 7.64806 4.384C7.54406 4.504 7.49206 4.664 7.49206 4.864V16.336ZM18.0641 16.336C18.0641 16.536 18.1161 16.7 18.2201 16.828C18.3241 16.948 18.4761 17.048 18.6761 17.128L19.1321 17.296C19.5481 17.456 19.7561 17.752 19.7561 18.184C19.7561 18.432 19.6721 18.632 19.5041 18.784C19.3361 18.928 19.0761 19 18.7241 19H11.8361C11.4841 19 11.2241 18.928 11.0561 18.784C10.8881 18.632 10.8041 18.432 10.8041 18.184C10.8041 17.752 11.0121 17.456 11.4281 17.296L11.8841 17.128C12.0921 17.048 12.2441 16.948 12.3401 16.828C12.4441 16.7 12.4961 16.536 12.4961 16.336V4.864C12.4961 4.664 12.4441 4.504 12.3401 4.384C12.2441 4.256 12.0921 4.152 11.8841 4.072L11.4281 3.904C11.0121 3.744 10.8041 3.448 10.8041 3.016C10.8041 2.76 10.8881 2.56 11.0561 2.416C11.2241 2.272 11.4841 2.2 11.8361 2.2H18.7241C19.0761 2.2 19.3361 2.272 19.5041 2.416C19.6721 2.56 19.7561 2.76 19.7561 3.016C19.7561 3.448 19.5481 3.744 19.1321 3.904L18.6761 4.072C18.4761 4.152 18.3241 4.256 18.2201 4.384C18.1161 4.504 18.0641 4.664 18.0641 4.864V16.336ZM28.3923 7.072C29.7523 7.072 30.9403 7.332 31.9563 7.852C32.9723 8.364 33.7603 9.084 34.3203 10.012C34.8883 10.94 35.1723 12.02 35.1723 13.252C35.1723 14.388 34.8763 15.416 34.2843 16.336C33.6923 17.256 32.8723 17.988 31.8243 18.532C30.7843 19.068 29.5763 19.336 28.2003 19.336C26.8403 19.336 25.6523 19.076 24.6363 18.556C23.6203 18.028 22.8283 17.3 22.2603 16.372C21.7003 15.444 21.4203 14.372 21.4203 13.156C21.4203 11.996 21.7163 10.96 22.3083 10.048C22.9003 9.128 23.7163 8.404 24.7563 7.876C25.8043 7.34 27.0163 7.072 28.3923 7.072ZM29.2683 17.596C29.5723 17.524 29.8043 17.312 29.9643 16.96C30.1243 16.608 30.1963 16.096 30.1803 15.424C30.1643 14.752 30.0443 13.9 29.8203 12.868C29.6123 11.876 29.3763 11.068 29.1123 10.444C28.8563 9.82 28.5763 9.372 28.2723 9.1C27.9683 8.828 27.6523 8.732 27.3243 8.812C27.0203 8.884 26.7883 9.096 26.6283 9.448C26.4683 9.8 26.3963 10.312 26.4123 10.984C26.4363 11.648 26.5563 12.5 26.7723 13.54C26.9803 14.524 27.2163 15.332 27.4803 15.964C27.7443 16.588 28.0243 17.036 28.3203 17.308C28.6243 17.572 28.9403 17.668 29.2683 17.596ZM43.3214 19H41.4974C41.1534 19 40.8534 18.92 40.5974 18.76C40.3494 18.6 40.1534 18.324 40.0094 17.932L36.9974 9.772C36.8934 9.476 36.8014 9.28 36.7214 9.184C36.6414 9.088 36.5574 9.02 36.4694 8.98L36.2174 8.86C36.0574 8.78 35.9414 8.688 35.8694 8.584C35.7974 8.472 35.7614 8.328 35.7614 8.152C35.7614 7.928 35.8374 7.752 35.9894 7.624C36.1494 7.496 36.3654 7.432 36.6374 7.432H42.7094C42.9734 7.432 43.1814 7.496 43.3334 7.624C43.4934 7.752 43.5734 7.928 43.5734 8.152C43.5734 8.328 43.5254 8.472 43.4294 8.584C43.3414 8.688 43.1934 8.772 42.9854 8.836L42.6614 8.932C42.4854 8.988 42.3814 9.108 42.3494 9.292C42.3174 9.476 42.3934 9.84 42.5774 10.384L44.6294 16.408L43.3934 17.356L46.2014 9.856L47.6534 10.78L44.8094 18.04C44.6574 18.424 44.4454 18.68 44.1734 18.808C43.9094 18.936 43.6254 19 43.3214 19ZM51.5054 19H49.7534C49.4174 19 49.1174 18.92 48.8534 18.76C48.5974 18.592 48.4014 18.316 48.2654 17.932L45.4094 9.772C45.3054 9.476 45.2134 9.28 45.1334 9.184C45.0534 9.088 44.9694 9.02 44.8814 8.98L44.6294 8.86C44.4694 8.78 44.3534 8.688 44.2814 8.584C44.2094 8.472 44.1734 8.328 44.1734 8.152C44.1734 7.672 44.4654 7.432 45.0494 7.432H50.9774C51.5534 7.432 51.8414 7.672 51.8414 8.152C51.8414 8.328 51.7974 8.476 51.7094 8.596C51.6214 8.708 51.4974 8.78 51.3374 8.812L50.8094 8.908C50.6334 8.94 50.5334 9.064 50.5094 9.28C50.4934 9.488 50.5694 9.852 50.7374 10.372L52.6814 16.408L51.5654 17.356L53.6414 10.708C53.8494 10.068 53.9414 9.628 53.9174 9.388C53.9014 9.14 53.7894 8.988 53.5814 8.932L53.2574 8.836C53.0574 8.772 52.9094 8.688 52.8134 8.584C52.7174 8.472 52.6694 8.328 52.6694 8.152C52.6694 7.928 52.7454 7.752 52.8974 7.624C53.0574 7.496 53.2694 7.432 53.5334 7.432H56.3174C56.5894 7.432 56.8014 7.496 56.9534 7.624C57.1134 7.752 57.1934 7.928 57.1934 8.152C57.1934 8.304 57.1574 8.44 57.0854 8.56C57.0134 8.672 56.8734 8.764 56.6654 8.836L56.4374 8.92C56.2934 8.976 56.1574 9.128 56.0294 9.376C55.9094 9.616 55.7534 10.012 55.5614 10.564L52.9934 18.04C52.8654 18.416 52.6614 18.672 52.3814 18.808C52.1014 18.936 51.8094 19 51.5054 19ZM68.9349 8.152V16.48C68.9349 16.8 68.9589 17.028 69.0069 17.164C69.0549 17.292 69.1389 17.384 69.2589 17.44L69.5229 17.56C69.7069 17.64 69.8389 17.74 69.9189 17.86C69.9989 17.98 70.0389 18.12 70.0389 18.28C70.0389 18.504 69.9669 18.68 69.8229 18.808C69.6789 18.936 69.4469 19 69.1269 19H63.6549C63.3349 19 63.1029 18.936 62.9589 18.808C62.8149 18.68 62.7429 18.504 62.7429 18.28C62.7429 18.12 62.7829 17.98 62.8629 17.86C62.9429 17.74 63.0749 17.64 63.2589 17.56L63.5229 17.44C63.6429 17.384 63.7269 17.292 63.7749 17.164C63.8229 17.028 63.8469 16.8 63.8469 16.48V10.84C63.8469 10.584 63.8109 10.404 63.7389 10.3C63.6749 10.188 63.5749 10.112 63.4389 10.072L63.1749 9.988C63.0069 9.932 62.8829 9.852 62.8029 9.748C62.7309 9.644 62.6949 9.512 62.6949 9.352C62.6949 9.16 62.7469 9.008 62.8509 8.896C62.9549 8.784 63.1509 8.672 63.4389 8.56L66.1029 7.528C66.5349 7.36 66.8749 7.244 67.1229 7.18C67.3709 7.108 67.5909 7.072 67.7829 7.072C68.1669 7.072 68.4549 7.176 68.6469 7.384C68.8389 7.584 68.9349 7.84 68.9349 8.152ZM66.1269 6.016C65.2309 6.016 64.5229 5.808 64.0029 5.392C63.4829 4.976 63.2229 4.408 63.2229 3.688C63.2229 2.976 63.4829 2.416 64.0029 2.008C64.5229 1.6 65.2309 1.396 66.1269 1.396C67.0229 1.396 67.7309 1.6 68.2509 2.008C68.7709 2.416 69.0309 2.976 69.0309 3.688C69.0309 4.408 68.7709 4.976 68.2509 5.392C67.7309 5.808 67.0229 6.016 66.1269 6.016ZM71.6364 8.992L71.2524 8.836C71.0764 8.764 70.9444 8.672 70.8564 8.56C70.7684 8.448 70.7244 8.312 70.7244 8.152C70.7244 7.92 70.8004 7.744 70.9524 7.624C71.1124 7.496 71.3164 7.432 71.5644 7.432H72.2244C72.3764 7.432 72.5164 7.392 72.6444 7.312C72.7804 7.232 72.9524 7.088 73.1604 6.88L75.1164 4.9C75.3804 4.636 75.6244 4.44 75.8484 4.312C76.0804 4.184 76.3004 4.12 76.5084 4.12C76.7404 4.12 76.9204 4.196 77.0484 4.348C77.1844 4.5 77.2524 4.72 77.2524 5.008V14.632C77.2524 15.216 77.3524 15.66 77.5524 15.964C77.7524 16.268 78.0404 16.42 78.4164 16.42C78.7204 16.42 78.9524 16.344 79.1124 16.192C79.2804 16.04 79.4124 15.868 79.5084 15.676C79.6124 15.476 79.7204 15.3 79.8324 15.148C79.9444 14.996 80.0964 14.92 80.2884 14.92C80.4484 14.92 80.5764 14.976 80.6724 15.088C80.7684 15.2 80.8164 15.392 80.8164 15.664C80.8164 16.344 80.6204 16.964 80.2284 17.524C79.8364 18.076 79.2964 18.516 78.6084 18.844C77.9204 19.172 77.1364 19.336 76.2564 19.336C74.9524 19.336 73.9444 19.024 73.2324 18.4C72.5204 17.768 72.1644 16.816 72.1644 15.544V9.772C72.1644 9.54 72.1204 9.372 72.0324 9.268C71.9524 9.164 71.8204 9.072 71.6364 8.992ZM75.5004 9.136V7.432H79.8804C80.1284 7.432 80.3244 7.488 80.4684 7.6C80.6204 7.704 80.6964 7.856 80.6964 8.056C80.6964 8.36 80.5484 8.616 80.2524 8.824C79.9564 9.032 79.4684 9.136 78.7884 9.136H75.5004ZM93.5714 19H91.7474C91.4034 19 91.1034 18.92 90.8474 18.76C90.5994 18.6 90.4034 18.324 90.2594 17.932L87.2474 9.772C87.1434 9.476 87.0514 9.28 86.9714 9.184C86.8914 9.088 86.8074 9.02 86.7194 8.98L86.4674 8.86C86.3074 8.78 86.1914 8.688 86.1194 8.584C86.0474 8.472 86.0114 8.328 86.0114 8.152C86.0114 7.928 86.0874 7.752 86.2394 7.624C86.3994 7.496 86.6154 7.432 86.8874 7.432H92.9594C93.2234 7.432 93.4314 7.496 93.5834 7.624C93.7434 7.752 93.8234 7.928 93.8234 8.152C93.8234 8.328 93.7754 8.472 93.6794 8.584C93.5914 8.688 93.4434 8.772 93.2354 8.836L92.9114 8.932C92.7354 8.988 92.6314 9.108 92.5994 9.292C92.5674 9.476 92.6434 9.84 92.8274 10.384L94.8794 16.408L93.6434 17.356L96.4514 9.856L97.9034 10.78L95.0594 18.04C94.9074 18.424 94.6954 18.68 94.4234 18.808C94.1594 18.936 93.8754 19 93.5714 19ZM101.755 19H100.003C99.6674 19 99.3674 18.92 99.1034 18.76C98.8474 18.592 98.6514 18.316 98.5154 17.932L95.6594 9.772C95.5554 9.476 95.4634 9.28 95.3834 9.184C95.3034 9.088 95.2194 9.02 95.1314 8.98L94.8794 8.86C94.7194 8.78 94.6034 8.688 94.5314 8.584C94.4594 8.472 94.4234 8.328 94.4234 8.152C94.4234 7.672 94.7154 7.432 95.2994 7.432H101.227C101.803 7.432 102.091 7.672 102.091 8.152C102.091 8.328 102.047 8.476 101.959 8.596C101.871 8.708 101.747 8.78 101.587 8.812L101.059 8.908C100.883 8.94 100.783 9.064 100.759 9.28C100.743 9.488 100.819 9.852 100.987 10.372L102.931 16.408L101.815 17.356L103.891 10.708C104.099 10.068 104.191 9.628 104.167 9.388C104.151 9.14 104.039 8.988 103.831 8.932L103.507 8.836C103.307 8.772 103.159 8.688 103.063 8.584C102.967 8.472 102.919 8.328 102.919 8.152C102.919 7.928 102.995 7.752 103.147 7.624C103.307 7.496 103.519 7.432 103.783 7.432H106.567C106.839 7.432 107.051 7.496 107.203 7.624C107.363 7.752 107.443 7.928 107.443 8.152C107.443 8.304 107.407 8.44 107.335 8.56C107.263 8.672 107.123 8.764 106.915 8.836L106.687 8.92C106.543 8.976 106.407 9.128 106.279 9.376C106.159 9.616 106.003 10.012 105.811 10.564L103.243 18.04C103.115 18.416 102.911 18.672 102.631 18.808C102.351 18.936 102.059 19 101.755 19ZM114.947 7.072C116.307 7.072 117.495 7.332 118.511 7.852C119.527 8.364 120.315 9.084 120.875 10.012C121.443 10.94 121.727 12.02 121.727 13.252C121.727 14.388 121.431 15.416 120.839 16.336C120.247 17.256 119.427 17.988 118.379 18.532C117.339 19.068 116.131 19.336 114.755 19.336C113.395 19.336 112.207 19.076 111.191 18.556C110.175 18.028 109.383 17.3 108.815 16.372C108.255 15.444 107.975 14.372 107.975 13.156C107.975 11.996 108.271 10.96 108.863 10.048C109.455 9.128 110.271 8.404 111.311 7.876C112.359 7.34 113.571 7.072 114.947 7.072ZM115.823 17.596C116.127 17.524 116.359 17.312 116.519 16.96C116.679 16.608 116.751 16.096 116.735 15.424C116.719 14.752 116.599 13.9 116.375 12.868C116.167 11.876 115.931 11.068 115.667 10.444C115.411 9.82 115.131 9.372 114.827 9.1C114.523 8.828 114.207 8.732 113.879 8.812C113.575 8.884 113.343 9.096 113.183 9.448C113.023 9.8 112.951 10.312 112.967 10.984C112.991 11.648 113.111 12.5 113.327 13.54C113.535 14.524 113.771 15.332 114.035 15.964C114.299 16.588 114.579 17.036 114.875 17.308C115.179 17.572 115.495 17.668 115.823 17.596ZM128.748 12.448C128.748 11.224 128.908 10.216 129.228 9.424C129.548 8.624 129.972 8.032 130.5 7.648C131.036 7.264 131.62 7.072 132.252 7.072C133.1 7.072 133.748 7.328 134.196 7.84C134.652 8.344 134.88 9.108 134.88 10.132C134.88 11.18 134.668 11.952 134.244 12.448C133.828 12.944 133.284 13.192 132.612 13.192C131.932 13.192 131.42 13.02 131.076 12.676C130.74 12.324 130.572 11.84 130.572 11.224V10.72C130.564 10.512 130.516 10.356 130.428 10.252C130.348 10.14 130.22 10.084 130.044 10.084C129.884 10.084 129.74 10.156 129.612 10.3C129.492 10.436 129.396 10.664 129.324 10.984C129.252 11.296 129.216 11.72 129.216 12.256L128.748 12.448ZM128.88 8.152L129.216 10.66V16.48C129.216 16.76 129.256 16.96 129.336 17.08C129.416 17.192 129.6 17.276 129.888 17.332L130.8 17.512C131.04 17.56 131.216 17.644 131.328 17.764C131.44 17.884 131.496 18.052 131.496 18.268C131.496 18.5 131.416 18.68 131.256 18.808C131.104 18.936 130.876 19 130.572 19H123.936C123.616 19 123.384 18.936 123.24 18.808C123.096 18.68 123.024 18.504 123.024 18.28C123.024 18.12 123.064 17.98 123.144 17.86C123.224 17.74 123.356 17.64 123.54 17.56L123.804 17.44C123.924 17.384 124.008 17.292 124.056 17.164C124.104 17.028 124.128 16.8 124.128 16.48V10.888C124.128 10.632 124.092 10.452 124.02 10.348C123.956 10.236 123.856 10.16 123.72 10.12L123.456 10.036C123.288 9.98 123.164 9.9 123.084 9.796C123.012 9.692 122.976 9.56 122.976 9.4C122.976 9.208 123.028 9.056 123.132 8.944C123.244 8.824 123.44 8.712 123.72 8.608L126.3 7.6C126.868 7.376 127.276 7.232 127.524 7.168C127.772 7.104 127.964 7.072 128.1 7.072C128.324 7.072 128.496 7.156 128.616 7.324C128.736 7.484 128.824 7.76 128.88 8.152ZM136.78 19C136.46 19 136.228 18.936 136.084 18.808C135.94 18.68 135.868 18.504 135.868 18.28C135.868 18.12 135.908 17.98 135.988 17.86C136.068 17.74 136.2 17.64 136.384 17.56L136.648 17.44C136.768 17.384 136.852 17.292 136.9 17.164C136.948 17.028 136.972 16.8 136.972 16.48V4.648C136.972 4.392 136.936 4.212 136.864 4.108C136.8 3.996 136.7 3.92 136.564 3.88L136.3 3.796C136.132 3.74 136.008 3.66 135.928 3.556C135.856 3.452 135.82 3.32 135.82 3.16C135.82 2.968 135.872 2.816 135.976 2.704C136.08 2.592 136.276 2.48 136.564 2.368L139.228 1.336C139.636 1.176 139.964 1.06 140.212 0.987999C140.468 0.915999 140.716 0.879999 140.956 0.879999C141.316 0.879999 141.588 0.983999 141.772 1.192C141.964 1.392 142.06 1.648 142.06 1.96V16.48C142.06 16.8 142.084 17.024 142.132 17.152C142.18 17.28 142.264 17.376 142.384 17.44L142.624 17.572C142.888 17.724 143.02 17.944 143.02 18.232C143.02 18.744 142.712 19 142.096 19H136.78ZM140.584 13.768L145.096 10.144C145.368 9.928 145.492 9.704 145.468 9.472C145.444 9.24 145.284 9.06 144.988 8.932L144.688 8.8C144.528 8.728 144.416 8.644 144.352 8.548C144.296 8.444 144.268 8.312 144.268 8.152C144.268 7.928 144.344 7.752 144.496 7.624C144.656 7.496 144.868 7.432 145.132 7.432H149.812C150.084 7.432 150.296 7.496 150.448 7.624C150.608 7.744 150.688 7.908 150.688 8.116C150.688 8.324 150.624 8.5 150.496 8.644C150.376 8.78 150.108 8.904 149.692 9.016C149.268 9.136 148.868 9.3 148.492 9.508C148.116 9.716 147.66 10.032 147.124 10.456L141.208 15.064L140.584 13.768ZM145.588 10.252L149.932 16.744C150.06 16.928 150.176 17.072 150.28 17.176C150.392 17.28 150.52 17.384 150.664 17.488C150.848 17.616 150.992 17.752 151.096 17.896C151.208 18.032 151.264 18.18 151.264 18.34C151.264 18.54 151.184 18.7 151.024 18.82C150.872 18.94 150.664 19 150.4 19H144.76C144.528 19 144.34 18.936 144.196 18.808C144.06 18.68 143.992 18.508 143.992 18.292C143.992 18.156 144.02 18.044 144.076 17.956C144.132 17.86 144.224 17.772 144.352 17.692L144.58 17.56C144.708 17.488 144.776 17.388 144.784 17.26C144.8 17.124 144.716 16.92 144.532 16.648L142.3 13.252L145.588 10.252ZM157.459 8.596C156.987 8.596 156.635 8.696 156.403 8.896C156.179 9.096 156.067 9.336 156.067 9.616C156.067 9.784 156.099 9.944 156.163 10.096C156.227 10.24 156.375 10.372 156.607 10.492C156.839 10.612 157.207 10.716 157.711 10.804C159.199 11.052 160.331 11.384 161.107 11.8C161.883 12.208 162.411 12.692 162.691 13.252C162.979 13.812 163.122 14.448 163.122 15.16C163.122 16.464 162.667 17.488 161.755 18.232C160.851 18.968 159.511 19.336 157.735 19.336C157.127 19.336 156.639 19.288 156.271 19.192C155.911 19.096 155.619 19 155.395 18.904C155.179 18.808 154.983 18.76 154.807 18.76C154.615 18.76 154.455 18.808 154.327 18.904C154.199 19 154.071 19.096 153.943 19.192C153.815 19.288 153.651 19.336 153.451 19.336C153.251 19.336 153.099 19.276 152.995 19.156C152.899 19.044 152.807 18.84 152.719 18.544L152.095 16.42C151.967 15.996 151.931 15.664 151.987 15.424C152.043 15.176 152.195 15.004 152.443 14.908C152.699 14.812 152.923 14.808 153.115 14.896C153.307 14.984 153.491 15.16 153.667 15.424C154.035 15.96 154.415 16.404 154.807 16.756C155.207 17.108 155.623 17.372 156.055 17.548C156.495 17.724 156.947 17.812 157.411 17.812C157.947 17.812 158.347 17.712 158.611 17.512C158.883 17.312 159.019 17.044 159.019 16.708C159.019 16.5 158.963 16.32 158.851 16.168C158.747 16.016 158.527 15.88 158.191 15.76C157.863 15.632 157.363 15.508 156.691 15.388C155.531 15.18 154.607 14.884 153.919 14.5C153.239 14.108 152.751 13.628 152.455 13.06C152.159 12.484 152.011 11.816 152.011 11.056C152.011 10.248 152.227 9.548 152.659 8.956C153.099 8.356 153.695 7.892 154.447 7.564C155.207 7.236 156.071 7.072 157.039 7.072C157.671 7.072 158.167 7.124 158.527 7.228C158.895 7.324 159.191 7.424 159.415 7.528C159.647 7.624 159.875 7.672 160.099 7.672C160.315 7.672 160.495 7.624 160.639 7.528C160.791 7.424 160.939 7.324 161.083 7.228C161.227 7.124 161.395 7.072 161.587 7.072C161.763 7.072 161.911 7.136 162.031 7.264C162.151 7.392 162.239 7.612 162.295 7.924L162.667 9.976C162.739 10.384 162.743 10.692 162.679 10.9C162.623 11.1 162.479 11.248 162.247 11.344C161.999 11.448 161.779 11.448 161.587 11.344C161.395 11.232 161.199 11.036 160.999 10.756C160.439 9.948 159.851 9.388 159.235 9.076C158.627 8.756 158.035 8.596 157.459 8.596Z" fill="#83888F"/>
</svg>
